<svg xmlns="http://www.w3.org/2000/svg" viewBox="0 0 53.65 96.31"><defs><style>.cls-1{fill:#f29100;}</style></defs><g id="Warstwa_1" data-name="Warstwa 1"><path class="cls-1" d="M33.38,70.51H20.27V48.12h.1c-.1-.7-.1-2.46-.1-6.92V33.35l6.55,5.1,6.56-5.1Zm-12.2-.91H32.47V35.21l-5.65,4.4-5.64-4.4V69.6Z"/><path class="cls-1" d="M43.42,81H10.23V14.65l16.59,12.7,16.6-12.7V48.12h-.08c.08.59.08,2,.08,5.07ZM11.14,80.1H42.51V16.49l-15.69,12-15.68-12Z"/><path class="cls-1" d="M40.05,77.23V21.31L26.82,31.5,13.6,21.31V77.23ZM26.82,35.89l9-7.09V73.17h-18V28.8Z"/></g></svg>