<svg xmlns="http://www.w3.org/2000/svg" viewBox="0 0 172.92 116.98"><defs><style>.cls-1{fill:#fff;}.cls-2{fill:#f29100;}</style></defs><g id="Warstwa_1" data-name="Warstwa 1"><path class="cls-1" d="M37.92,53.15V30.37a1.12,1.12,0,0,1,1.26-1.27H49.31a1.12,1.12,0,0,1,1.26,1.27,1.11,1.11,0,0,1-1.26,1.26H40.45v7.6h8.86a1.27,1.27,0,0,1,0,2.53H40.45V53.15a1.27,1.27,0,0,1-2.53,0Z"/><path class="cls-1" d="M55.63,53.15V30.37A1.12,1.12,0,0,1,56.9,29.1H67a1.12,1.12,0,0,1,1.26,1.27A1.11,1.11,0,0,1,67,31.63H58.17v7.6h6.32a1.27,1.27,0,1,1,0,2.53H58.17V51.88H67a1.27,1.27,0,0,1,0,2.53H56.9A1.12,1.12,0,0,1,55.63,53.15Z"/><path class="cls-1" d="M28.69,86.2a6.35,6.35,0,0,1-6.33,6.33,13.33,13.33,0,0,1-8.3-2.76,1.27,1.27,0,0,1-.56-1,1.28,1.28,0,0,1,1.27-1.26,1.64,1.64,0,0,1,.73.23A37.29,37.29,0,0,0,19,89.46a10.18,10.18,0,0,0,3.37.54,3.79,3.79,0,0,0,3.8-3.8,3.57,3.57,0,0,0-2.11-3.39l-7.11-3.64a5.9,5.9,0,0,1-3.44-5.62,6.35,6.35,0,0,1,6.33-6.33,13.76,13.76,0,0,1,6.85,1.38,1.31,1.31,0,0,1,.75,1.15A1.3,1.3,0,0,1,26.16,71a1.64,1.64,0,0,1-.54-.14,16,16,0,0,0-5.79-1.13A3.79,3.79,0,0,0,16,73.55a3.53,3.53,0,0,0,2.07,3.37l7.11,3.65A5.9,5.9,0,0,1,28.69,86.2Z"/><path class="cls-1" d="M33.75,68.49A1.12,1.12,0,0,1,35,67.22H47.68a1.27,1.27,0,0,1,0,2.53H42.61V91.27a1.27,1.27,0,0,1-2.53,0V69.75H35A1.12,1.12,0,0,1,33.75,68.49Z"/><path class="cls-1" d="M64.63,81.87,69,90.69a1.32,1.32,0,0,1,.15.58,1.3,1.3,0,0,1-1.26,1.26,1.2,1.2,0,0,1-1.16-.71l-4.71-9.43-.46,0H56.53v8.86a1.27,1.27,0,0,1-2.53,0V68.49a1.12,1.12,0,0,1,1.27-1.27H61.6a7.55,7.55,0,0,1,7.59,7.59Q69.19,80,64.63,81.87Zm-8.1-12.12V79.88H61.6a5.07,5.07,0,1,0,0-10.13Z"/><path class="cls-1" d="M137.9,67.22a1.27,1.27,0,0,1,0,2.53h-5.06a3.77,3.77,0,0,0-3.8,3.8V86.2a3.79,3.79,0,0,0,3.8,3.8h5.06a1.27,1.27,0,0,1,0,2.53h-5.06a6.32,6.32,0,0,1-6.33-6.33V73.55a6.32,6.32,0,0,1,6.33-6.33Z"/><path class="cls-1" d="M144.23,68.49a1.12,1.12,0,0,1,1.26-1.27h12.66a1.27,1.27,0,0,1,0,2.53h-5.06V91.27a1.27,1.27,0,0,1-2.54,0V69.75h-5.06A1.11,1.11,0,0,1,144.23,68.49Z"/><path class="cls-2" d="M106.74,86.85H89.26V37.31L98,44.12l8.74-6.81ZM90.47,85.64h15V39.8L98,45.66,90.47,39.8Z"/><path class="cls-2" d="M120.12,100.84H75.87V12.39L98,29.32l22.12-16.93Zm-43-1.21h41.82V14.85L98,30.85l-20.91-16Z"/><path class="cls-2" d="M115.63,95.8V21.26L98,34.86,80.37,21.26V95.8ZM98,40.71l12-9.46V90.4H86V31.25Z"/></g></svg>